# xmcd
#
# Track frame offsets: 
#        150
#        20370
#        34218
#        49761
#        62612
#        78090
#        98220
#        116815
#        139706
#        157387
#        173670
#        187720
#        212026
#
# Disc length: 3059 seconds
#
# Revision: 0
# Processed by: cddbd v1.5.2PL0 Copyright (c) Steve Scherf et al.
# Submitted via: ExactAudioCopy v0.95b4
#
DISCID=a90bf10d
DTITLE=Eric Clapton - His Majesty's Hand [CD1]
DYEAR=1994
DGENRE=Blues
TTITLE0=Motherless child
TTITLE1=Malted milk
TTITLE2=How long blues
TTITLE3=Kidman blues
TTITLE4=County jail blues
TTITLE5=Forty-four blues
TTITLE6=Blues all day long
TTITLE7=Standing around crying
TTITLE8=Hoochie coochie man
TTITLE9=It hurts me too
TTITLE10=Blues before sunrise
TTITLE11=Third degree
TTITLE12=Reconsider baby
EXTD=
EXTT0=
EXTT1=
EXTT2=
EXTT3=
EXTT4=
EXTT5=
EXTT6=
EXTT7=
EXTT8=
EXTT9=
EXTT10=
EXTT11=
EXTT12=
PLAYORDER=
